# xmcd
#
# Track frame offsets:
# 150
# 18912
# 29711
# 50891
# 77993
# 95282
# 121052
# 141214
# 151805
# 174072
# 197100
# 216155
#
# Disc length: 3102 seconds
#
#
# Revision: 0
# Processed by: cddbd v1.5.2PL0 Copyright (c) Steve Scherf et al.
# Submitted via: FreeRIP 2.945 
#
DISCID=9d0c1c0c
DTITLE=Dixie Chicks - Home
DYEAR=1900
DGENRE=Country
TTITLE0=Long Time Gone
TTITLE1=Landslide
TTITLE2=Travelin' Soldier
TTITLE3=Truth No. 2
TTITLE4=White Trash Wedding
TTITLE5=A Home
TTITLE6=More Love
TTITLE7=I Believe In Love
TTITLE8=Totured, Tangled Hearts
TTITLE9=Lil' Jack Blade
TTITLE10=Godspeed (sweet dreams)
TTITLE11=Top Of The World
EXTD=
EXTT0=
EXTT1=
EXTT2=
EXTT3=
EXTT4=
EXTT5=
EXTT6=
EXTT7=
EXTT8=
EXTT9=
EXTT10=
EXTT11=
PLAYORDER=
